<svg fill="none" height="41" viewBox="0 0 155 41" width="155" xmlns="http://www.w3.org/2000/svg"><g fill="#fff"><path d="m0 .728001v39.199999h22.064v-7.896h-13.664v-31.303999z"/><path d="m64.0268 20.328c0-11.312-9.072-20.328-20.496-20.328s-20.496 9.016-20.496 20.328 9.072 20.328 20.496 20.328 20.496-9.016 20.496-20.328zm-8.624 0c0 6.776-5.208 12.152-11.872 12.152s-11.872-5.376-11.872-12.152 5.208-12.152 11.872-12.152 11.872 5.376 11.872 12.152z"/><path d="m107.11 10.136c-3.192-6.328-9.8004-10.136-17.6964-10.136-11.256 0-20.496 9.128-20.496 20.328s9.016 20.328 20.44 20.328c11.2004 0 19.3764-8.4 19.3764-19.376v-3.136h-20.3844v7.056h11.368c-1.064 4.48-5.096 7.56-10.304 7.56-6.72 0-11.984-5.544-11.984-12.432 0-6.944 5.264-12.376 11.928-12.376 4.536 0 8.176 2.072 10.136 5.88z"/><path d="m154.261 20.328c0-11.312-9.072-20.328-20.496-20.328s-20.496 9.016-20.496 20.328 9.072 20.328 20.496 20.328 20.496-9.016 20.496-20.328zm-8.624 0c0 6.776-5.208 12.152-11.872 12.152s-11.872-5.376-11.872-12.152 5.208-12.152 11.872-12.152 11.872 5.376 11.872 12.152z"/></g></svg>