<?xml version="1.0" encoding="UTF-8"?>
<svg xmlns="http://www.w3.org/2000/svg" xmlns:xlink="http://www.w3.org/1999/xlink" viewBox="0 0 30 30" width="30px" height="30px">
<g id="surface59629921">
<path style=" stroke:none;fill-rule:nonzero;fill:rgb(100%,100%,100%);fill-opacity:1;" d="M 21.121094 1.261719 C 20.21875 1.261719 19.4375 1.4375 18.71875 1.621094 C 19.980469 2.160156 20.761719 2.820312 21.179688 3.121094 C 22.140625 3.957031 22.679688 4.800781 23.640625 6.179688 C 23.820312 6.480469 24.121094 6.898438 24.300781 7.558594 C 24.480469 8.160156 24.480469 8.640625 24.480469 9.121094 C 24.480469 9.78125 24.417969 10.320312 24.359375 10.859375 C 24.300781 11.28125 24.300781 11.460938 24.242188 11.582031 C 24.242188 11.640625 24.242188 11.699219 24.179688 11.820312 C 24.179688 12.121094 24.179688 12.242188 24.242188 12.480469 C 24.242188 12.71875 24.300781 12.960938 24.300781 13.378906 C 24.359375 14.160156 24.359375 14.699219 24.242188 15.359375 L 24.242188 15.601562 C 24.121094 16.140625 24 16.679688 23.699219 17.160156 C 23.761719 17.28125 23.820312 17.339844 23.878906 17.457031 C 24.179688 17.039062 24.417969 16.621094 24.660156 16.140625 C 25.378906 14.820312 25.800781 13.679688 26.101562 12.839844 C 26.640625 11.28125 26.9375 10.140625 27.121094 9.300781 C 27.539062 7.5 27.601562 6.660156 27.417969 5.699219 C 27.417969 5.398438 27.300781 4.859375 27 4.320312 C 26.339844 3.121094 25.320312 2.582031 24.601562 2.21875 C 24.121094 1.980469 22.859375 1.320312 21.121094 1.261719 Z M 8.121094 1.527344 C 7.429688 1.511719 6.585938 1.589844 5.640625 2.039062 C 5.339844 2.160156 4.4375 2.582031 3.71875 3.539062 C 3.238281 4.140625 2.878906 5.039062 2.699219 6.058594 C 2.519531 6.957031 2.457031 8.042969 2.820312 10.082031 C 3.058594 11.519531 3.300781 12.480469 3.78125 14.457031 C 3.839844 14.699219 4.199219 15.78125 4.980469 18.179688 L 5.039062 18.300781 C 5.160156 18.71875 5.519531 19.621094 6.300781 20.519531 C 6.839844 21.121094 7.320312 21.480469 7.742188 21.480469 L 7.859375 21.480469 C 8.640625 21.480469 9.179688 20.878906 9.660156 20.398438 C 9.660156 20.339844 10.800781 18.960938 11.21875 18.480469 C 11.160156 18.417969 11.042969 18.417969 10.980469 18.359375 C 10.261719 17.9375 9.71875 17.28125 9.300781 16.558594 C 8.582031 15.238281 8.640625 13.917969 8.757812 13.257812 L 8.820312 12.242188 C 8.582031 10.621094 8.640625 9.0625 8.941406 7.5 C 9.179688 6.179688 9.480469 4.859375 10.558594 3.480469 C 10.917969 3 11.339844 2.582031 11.757812 2.28125 C 10.800781 1.859375 9.78125 1.621094 8.757812 1.5625 C 8.5625 1.542969 8.351562 1.53125 8.121094 1.527344 Z M 15.660156 2.039062 C 15.359375 2.039062 15.058594 2.039062 14.757812 2.101562 C 13.558594 2.339844 12.417969 3 11.519531 4.140625 C 10.621094 5.28125 10.378906 6.359375 10.140625 7.621094 C 10.019531 8.101562 10.019531 8.519531 9.957031 9 C 10.320312 8.699219 10.800781 8.339844 11.519531 8.160156 C 11.9375 8.039062 13.019531 7.679688 13.917969 8.21875 C 14.21875 8.398438 14.640625 8.761719 15.058594 9.78125 C 15.957031 12.300781 15.0625 14.878906 14.941406 15.121094 C 14.878906 15.359375 14.761719 15.539062 14.699219 15.660156 C 14.582031 15.957031 14.460938 16.199219 14.339844 16.679688 C 14.28125 17.101562 14.21875 17.460938 14.21875 17.878906 C 14.398438 17.878906 14.582031 17.9375 14.757812 18.058594 C 15.058594 18.359375 15.121094 18.78125 15.179688 18.957031 C 15.300781 19.917969 15.300781 21.121094 15.300781 22.320312 C 15.300781 23.28125 15.300781 24.179688 15.359375 24.78125 C 15.480469 26.160156 15.898438 27.121094 16.5 27.601562 C 16.917969 27.960938 17.457031 27.957031 17.757812 28.019531 L 17.878906 28.019531 C 18.78125 28.019531 20.21875 27.417969 20.757812 26.582031 C 21.058594 26.101562 21.179688 25.679688 21.300781 25.082031 C 21.359375 24.71875 21.359375 24.542969 21.417969 24.179688 C 21.417969 24 21.480469 23.699219 21.480469 23.339844 C 21.480469 23.042969 21.539062 22.679688 21.601562 22.257812 C 21.660156 21.238281 21.839844 20.042969 21.898438 19.378906 C 21.960938 18.601562 22.320312 17.9375 22.621094 17.519531 C 22.199219 17.457031 21.78125 17.101562 21.542969 16.5 C 21.179688 15.839844 21.121094 15.660156 21.058594 15.359375 C 21 15.121094 20.878906 14.820312 20.457031 13.917969 C 19.558594 11.878906 19.441406 11.28125 19.441406 10.800781 C 19.378906 10.140625 19.320312 9.242188 20.042969 8.640625 C 21.121094 7.679688 22.5 7.742188 23.21875 7.980469 L 23.21875 7.859375 C 23.101562 7.378906 22.859375 7.019531 22.679688 6.78125 C 21.78125 5.398438 21.300781 4.679688 20.457031 3.960938 C 20.101562 3.660156 19.199219 2.9375 17.878906 2.460938 C 17.28125 2.28125 16.558594 2.039062 15.660156 2.039062 Z M 22.292969 9.074219 C 21.855469 9.042969 21.300781 9.121094 20.820312 9.542969 C 20.582031 9.78125 20.582031 10.261719 20.640625 10.679688 C 20.640625 10.980469 20.699219 11.398438 21.601562 13.441406 C 22.019531 14.398438 22.140625 14.699219 22.199219 14.941406 C 22.261719 15.179688 22.320312 15.300781 22.679688 15.957031 C 22.742188 16.082031 22.800781 16.199219 22.917969 16.320312 C 23.039062 16.140625 23.101562 15.839844 23.160156 15.359375 L 23.21875 15.179688 C 23.339844 14.640625 23.28125 14.21875 23.28125 13.5 C 23.28125 13.140625 23.21875 12.898438 23.21875 12.71875 C 23.160156 12.417969 23.160156 12.179688 23.160156 11.820312 C 23.039062 11.640625 23.039062 11.582031 23.101562 11.457031 C 23.101562 11.339844 23.160156 11.160156 23.21875 10.800781 C 23.28125 10.320312 23.339844 9.898438 23.339844 9.417969 C 23.21875 9.359375 23.160156 9.300781 23.042969 9.242188 C 23.042969 9.242188 22.726562 9.105469 22.292969 9.074219 Z M 12.910156 9.3125 C 12.527344 9.265625 12.089844 9.390625 11.820312 9.480469 C 11.160156 9.660156 10.742188 10.082031 10.441406 10.320312 C 10.261719 10.5 10.082031 10.679688 9.898438 10.917969 C 9.898438 11.339844 9.957031 11.761719 10.019531 12.179688 L 10.019531 12.242188 L 9.898438 13.441406 C 9.78125 13.980469 9.71875 15 10.320312 16.019531 C 10.621094 16.621094 11.042969 17.101562 11.582031 17.398438 C 11.941406 17.640625 12.417969 17.820312 12.957031 17.941406 C 12.957031 17.519531 13.019531 17.039062 13.082031 16.621094 C 13.199219 16.019531 13.320312 15.71875 13.5 15.359375 C 13.5625 15.179688 13.621094 15.0625 13.742188 14.878906 C 13.800781 14.699219 14.640625 12.417969 13.859375 10.320312 C 13.679688 9.839844 13.5 9.539062 13.257812 9.417969 C 13.15625 9.359375 13.035156 9.324219 12.910156 9.3125 Z M 21.710938 9.652344 C 21.871094 9.644531 22.019531 9.660156 22.082031 9.71875 C 22.261719 9.839844 22.019531 10.140625 21.957031 10.199219 C 21.898438 10.261719 21.78125 10.378906 21.601562 10.441406 C 21.359375 10.5 21.179688 10.320312 21.121094 10.320312 C 21.058594 10.257812 20.878906 10.082031 20.941406 9.898438 C 21 9.78125 21.0625 9.78125 21.300781 9.71875 C 21.390625 9.6875 21.554688 9.660156 21.710938 9.652344 Z M 12.695312 10.152344 C 12.894531 10.136719 13.0625 10.214844 13.199219 10.257812 C 13.378906 10.320312 13.558594 10.378906 13.558594 10.5 C 13.621094 10.679688 13.441406 10.800781 13.378906 10.859375 C 13.199219 11.039062 12.898438 11.042969 12.898438 11.042969 C 12.601562 11.042969 12.417969 10.859375 12.300781 10.679688 C 12.238281 10.621094 12.179688 10.5 12.242188 10.378906 C 12.300781 10.261719 12.417969 10.199219 12.480469 10.199219 C 12.554688 10.167969 12.625 10.15625 12.695312 10.152344 Z M 23.699219 18 C 23.398438 18.417969 22.980469 18.960938 22.917969 19.679688 C 22.917969 19.800781 22.917969 19.859375 22.859375 19.980469 C 23.339844 20.101562 23.761719 20.101562 24.179688 20.042969 C 25.140625 19.917969 25.800781 19.4375 25.917969 19.320312 C 26.339844 19.019531 26.878906 18.417969 26.757812 18.179688 C 26.699219 18.0625 26.519531 18.121094 25.558594 18.179688 C 25.320312 18.179688 24.601562 18.359375 24.121094 18.242188 L 24 18.242188 C 23.878906 18.179688 23.761719 18.121094 23.699219 18 Z M 13.257812 19.199219 C 13.140625 19.378906 12.960938 19.5 12.839844 19.621094 C 12.359375 19.917969 11.757812 20.160156 11.160156 20.28125 C 10.621094 20.460938 10.320312 20.460938 10.320312 20.640625 C 10.257812 20.878906 10.859375 21.179688 11.160156 21.300781 C 12.179688 21.71875 13.199219 21.480469 13.378906 21.417969 C 13.5 21.359375 13.800781 21.238281 14.101562 21.058594 C 14.101562 20.398438 14.042969 19.800781 13.980469 19.320312 L 13.980469 19.257812 L 13.917969 19.257812 C 13.738281 19.257812 13.5 19.261719 13.257812 19.199219 Z M 13.257812 19.199219 "/>
</g>
</svg>
