<?xml version="1.0" encoding="UTF-8"?>
<svg xmlns="http://www.w3.org/2000/svg" xmlns:xlink="http://www.w3.org/1999/xlink" viewBox="0 0 16 16" width="16px" height="16px">
<g id="surface59771762">
<path style=" stroke:none;fill-rule:nonzero;fill:rgb(100%,100%,100%);fill-opacity:1;" d="M 5.417969 1.917969 C 5.144531 1.9375 4.875 2.011719 4.625 2.152344 C 4.128906 2.441406 3.828125 2.945312 3.707031 3.492188 C 3.585938 4.039062 3.617188 4.652344 3.738281 5.304688 C 3.753906 5.394531 3.78125 5.488281 3.804688 5.578125 C 3.609375 5.640625 3.402344 5.695312 3.226562 5.765625 C 2.597656 6.007812 2.070312 6.296875 1.675781 6.65625 C 1.277344 7.015625 1 7.480469 1 8 C 1 8.519531 1.277344 8.984375 1.675781 9.34375 C 2.070312 9.703125 2.597656 9.992188 3.226562 10.234375 C 3.417969 10.308594 3.640625 10.371094 3.855469 10.433594 C 3.824219 10.582031 3.785156 10.734375 3.765625 10.871094 C 3.671875 11.519531 3.671875 12.101562 3.792969 12.613281 C 3.914062 13.128906 4.179688 13.589844 4.625 13.84375 C 5.070312 14.101562 5.601562 14.101562 6.105469 13.949219 C 6.609375 13.800781 7.117188 13.507812 7.632812 13.105469 C 7.742188 13.019531 7.851562 12.90625 7.964844 12.808594 C 8.042969 12.882812 8.121094 12.96875 8.203125 13.039062 C 8.707031 13.472656 9.222656 13.800781 9.757812 13.96875 C 10.292969 14.140625 10.878906 14.132812 11.375 13.84375 C 11.871094 13.558594 12.171875 13.054688 12.292969 12.507812 C 12.414062 11.960938 12.382812 11.347656 12.265625 10.691406 C 12.246094 10.605469 12.21875 10.511719 12.199219 10.417969 C 12.390625 10.359375 12.597656 10.304688 12.777344 10.234375 C 13.402344 9.992188 13.929688 9.703125 14.328125 9.34375 C 14.722656 8.984375 15 8.519531 15 8 C 15 7.480469 14.722656 7.015625 14.328125 6.65625 C 13.929688 6.296875 13.402344 6.007812 12.777344 5.765625 C 12.582031 5.691406 12.359375 5.628906 12.148438 5.5625 C 12.175781 5.417969 12.214844 5.265625 12.238281 5.125 C 12.328125 4.480469 12.328125 3.898438 12.207031 3.382812 C 12.085938 2.871094 11.820312 2.410156 11.375 2.152344 C 10.929688 1.898438 10.398438 1.898438 9.894531 2.046875 C 9.390625 2.199219 8.882812 2.492188 8.371094 2.894531 C 8.257812 2.980469 8.148438 3.09375 8.039062 3.1875 C 7.957031 3.117188 7.878906 3.03125 7.800781 2.960938 C 7.292969 2.527344 6.777344 2.199219 6.242188 2.027344 C 5.972656 1.945312 5.691406 1.902344 5.417969 1.917969 Z M 5.488281 2.914062 C 5.617188 2.90625 5.765625 2.925781 5.9375 2.984375 C 6.285156 3.09375 6.710938 3.347656 7.152344 3.722656 C 7.207031 3.769531 7.265625 3.832031 7.324219 3.886719 C 6.984375 4.246094 6.652344 4.648438 6.332031 5.089844 C 5.78125 5.140625 5.261719 5.226562 4.769531 5.332031 C 4.753906 5.265625 4.730469 5.191406 4.71875 5.128906 C 4.613281 4.558594 4.605469 4.0625 4.6875 3.707031 C 4.765625 3.351562 4.898438 3.148438 5.125 3.019531 C 5.238281 2.953125 5.355469 2.917969 5.488281 2.914062 Z M 10.59375 2.941406 C 10.707031 2.949219 10.796875 2.976562 10.875 3.019531 C 11.027344 3.109375 11.15625 3.28125 11.238281 3.617188 C 11.316406 3.949219 11.328125 4.425781 11.246094 4.984375 C 11.230469 5.089844 11.195312 5.210938 11.175781 5.320312 C 10.703125 5.222656 10.207031 5.140625 9.683594 5.089844 C 9.378906 4.664062 9.066406 4.265625 8.742188 3.902344 C 8.824219 3.832031 8.90625 3.746094 8.988281 3.683594 C 9.433594 3.332031 9.851562 3.105469 10.179688 3.007812 C 10.34375 2.957031 10.480469 2.9375 10.59375 2.945312 Z M 8.023438 4.601562 C 8.140625 4.738281 8.257812 4.871094 8.371094 5.011719 C 8.246094 5.011719 8.128906 5 8 5 C 7.882812 5 7.769531 5.011719 7.652344 5.011719 C 7.777344 4.867188 7.898438 4.738281 8.023438 4.601562 Z M 8 6 C 8.390625 6 8.765625 6.019531 9.136719 6.042969 C 9.34375 6.351562 9.542969 6.671875 9.734375 7 C 9.921875 7.324219 10.097656 7.660156 10.261719 7.992188 C 10.101562 8.324219 9.925781 8.664062 9.734375 9 C 9.539062 9.335938 9.335938 9.652344 9.128906 9.957031 C 8.761719 9.980469 8.386719 10 8 10 C 7.609375 10 7.234375 9.980469 6.863281 9.957031 C 6.65625 9.648438 6.457031 9.328125 6.269531 9 C 6.078125 8.675781 5.902344 8.339844 5.738281 8.007812 C 5.898438 7.675781 6.074219 7.335938 6.269531 7 C 6.460938 6.664062 6.664062 6.347656 6.871094 6.042969 C 7.238281 6.019531 7.613281 6 8 6 Z M 5.601562 6.1875 C 5.535156 6.292969 5.464844 6.390625 5.402344 6.5 C 5.339844 6.609375 5.289062 6.71875 5.230469 6.832031 C 5.160156 6.648438 5.097656 6.472656 5.039062 6.296875 C 5.226562 6.257812 5.402344 6.21875 5.601562 6.1875 Z M 10.402344 6.1875 C 10.585938 6.214844 10.753906 6.253906 10.925781 6.292969 C 10.875 6.460938 10.828125 6.628906 10.761719 6.808594 C 10.707031 6.703125 10.65625 6.601562 10.597656 6.5 C 10.535156 6.394531 10.464844 6.292969 10.402344 6.1875 Z M 11.902344 6.539062 C 12.074219 6.589844 12.261719 6.640625 12.417969 6.699219 C 12.964844 6.910156 13.390625 7.160156 13.652344 7.398438 C 13.914062 7.632812 14 7.832031 14 8 C 14 8.167969 13.914062 8.367188 13.652344 8.605469 C 13.390625 8.839844 12.964844 9.089844 12.417969 9.300781 C 12.269531 9.355469 12.097656 9.402344 11.9375 9.453125 C 11.777344 8.972656 11.582031 8.480469 11.355469 7.988281 C 11.574219 7.492188 11.757812 7.007812 11.902344 6.539062 Z M 4.0625 6.546875 C 4.222656 7.027344 4.417969 7.519531 4.644531 8.011719 C 4.425781 8.507812 4.242188 8.992188 4.097656 9.464844 C 3.925781 9.410156 3.738281 9.359375 3.582031 9.300781 C 3.035156 9.089844 2.609375 8.839844 2.347656 8.601562 C 2.085938 8.367188 2 8.167969 2 8 C 2 7.832031 2.085938 7.632812 2.347656 7.398438 C 2.609375 7.160156 3.035156 6.910156 3.582031 6.699219 C 3.730469 6.644531 3.902344 6.597656 4.0625 6.546875 Z M 8 7 C 7.449219 7 7 7.449219 7 8 C 7 8.550781 7.449219 9 8 9 C 8.550781 9 9 8.550781 9 8 C 9 7.449219 8.550781 7 8 7 Z M 10.769531 9.167969 C 10.839844 9.351562 10.902344 9.527344 10.960938 9.703125 C 10.773438 9.742188 10.597656 9.78125 10.398438 9.8125 C 10.464844 9.707031 10.535156 9.609375 10.597656 9.5 C 10.660156 9.390625 10.710938 9.28125 10.769531 9.167969 Z M 5.238281 9.191406 C 5.292969 9.296875 5.34375 9.398438 5.402344 9.5 C 5.464844 9.605469 5.535156 9.707031 5.597656 9.8125 C 5.414062 9.785156 5.246094 9.746094 5.070312 9.707031 C 5.125 9.539062 5.171875 9.371094 5.238281 9.191406 Z M 11.230469 10.667969 C 11.246094 10.734375 11.269531 10.808594 11.28125 10.871094 C 11.386719 11.441406 11.394531 11.9375 11.3125 12.292969 C 11.234375 12.648438 11.101562 12.851562 10.875 12.980469 C 10.648438 13.109375 10.40625 13.128906 10.0625 13.015625 C 9.714844 12.90625 9.289062 12.652344 8.847656 12.277344 C 8.792969 12.230469 8.734375 12.167969 8.675781 12.113281 C 9.015625 11.753906 9.347656 11.351562 9.667969 10.910156 C 10.21875 10.859375 10.738281 10.773438 11.230469 10.667969 Z M 4.824219 10.679688 C 5.296875 10.777344 5.792969 10.859375 6.316406 10.910156 C 6.621094 11.335938 6.933594 11.734375 7.257812 12.097656 C 7.175781 12.167969 7.09375 12.253906 7.011719 12.320312 C 6.566406 12.667969 6.148438 12.894531 5.820312 12.996094 C 5.492188 13.09375 5.277344 13.070312 5.125 12.980469 C 4.972656 12.890625 4.84375 12.71875 4.761719 12.386719 C 4.683594 12.050781 4.671875 11.574219 4.753906 11.015625 C 4.769531 10.910156 4.804688 10.789062 4.824219 10.679688 Z M 7.628906 10.988281 C 7.753906 10.988281 7.871094 11 8 11 C 8.117188 11 8.230469 10.988281 8.347656 10.988281 C 8.222656 11.132812 8.101562 11.261719 7.976562 11.398438 C 7.859375 11.261719 7.742188 11.128906 7.625 10.988281 Z M 7.628906 10.988281 "/>
</g>
</svg>
